<svg xmlns="http://www.w3.org/2000/svg" width="206.5" height="256.3" xml:space="preserve" overflow="visible"><path fill='#ffffff' d="m94.1 117.7 2.7-2.7h-3.7l-21.7-7.2-11.3 8.9 11.8-2.7 22.2 3.7zm1.9 16c1.8-1 2.4-3.3 1.4-5.1-1-1.8-3.3-2.4-5.1-1.4-.4.2-10 5.4-22.1-.1-1.9-.9-4.1 0-5 1.8-.9 1.9 0 4.1 1.8 5 5.3 2.4 10.2 3.2 14.4 3.2 8.5 0 14.2-3.2 14.6-3.4zm41.5-6.7c-12 5.5-21.6.4-22.1.1-1.8-1-4.1-.4-5.1 1.4-1 1.8-.4 4.1 1.4 5.1.4.2 6.1 3.4 14.5 3.4 4.2 0 9.2-.8 14.4-3.2 1.9-.9 2.7-3.1 1.8-5-.8-1.8-3-2.6-4.9-1.8zm64.8 117.1-39.6-13.3-10.9-20.2c4.6-4.9 8.2-9 8.2-9l1.7-26.8c.8 0 1.6-.2 2.4-.7 22.3-12.8 26.4-36 27.1-42.8.4-3.3 1.2-14.6-3.5-18.7-4.1-3.7-9.6-2.1-14.3.4 1.4-5.9 4-18.2 5.4-31.4 2-9.5 4.9-22.5 7.4-29.3 4.2-11.5 17-14.6 17-14.6L188 39.5c6.7-11.5-.6-23.1-.6-23.1.6 7.3-9.7 11.5-9.7 11.5-7.9 5.5-29.7-10.9-40.7-17s-18.8-.6-18.8-.6c3.6-4.2-.6-8.5-.6-8.5C116.5 7.9 94 6.7 94 6.7l.6-6.7c-16.4 1.8-34 26.1-34 26.1C60 20 66.1 7.9 66.1 7.9 55.9 12.2 49.7 25.1 46 36.1c-1.2 1-4 2.2-9.2-2.8 0 0-3 4.5-6.2 23.9-3.5 20.9 3.3 49.5 5.3 57.3-5-3.4-12.2-6.6-17.1-2.1-4.6 4.2-3.8 15.4-3.5 18.7.7 6.8 4.9 30.1 27.1 42.8.8.4 1.6.7 2.5.7.5 0 .9-.1 1.4-.2l1.9 27.3s3 3.4 7 7.7l-11.4 21.2-39.5 13.5c-3.3 1.1-5 4.6-3.9 7.9.9 2.6 3.3 4.3 5.9 4.3.7 0 1.3-.1 2-.3l41.9-14.1c1.5-.5 2.8-1.6 3.5-3l10.7-19.8c3.1 3.2 6 6.1 8 7.8 6.6 5.7 27.4 9.3 29 9.5h5.9v-.1c2.6-.5 22.4-4.1 28.8-9.7 1.7-1.5 4.1-3.9 6.8-6.6l10.1 18.7c.8 1.4 2 2.4 3.5 3l41.9 14.1c.7.2 1.3.3 2 .3 2.6 0 5-1.6 5.9-4.3 1-3.1-.7-6.6-4-7.7zm-32-117c.7-.2 1.4-.5 2-1.1 2.9-2.6 6.8-5 8.8-5.6 1.7 5.9.3 28.3-17 41.6 3.2-11 5.3-22.9 6.2-34.9zm-144.8-6.7c2 .6 5.9 3 8.8 5.6.9.8 2 1.2 3.1 1.2.9 12.4 3.1 24.5 6.5 35.9-18.6-13.1-20.1-36.6-18.4-42.7zm110.8 70.4c-5.4 4.6-15 9.7-26.8 4.3-.1-.1-.2-.1-.3-.2l3.8-8s-11.4-4.1-18.7 0l4.6 8.2c-11.8 5.5-21.4.5-26.9-4.1s-10.5-24.1-10.5-24.1c-3.6-3.3-8.4-13.1-11.2-19.4-1.1-5.4-1.9-10.9-2.4-16.5l2.7 3.4s-1-10.1.9-19.9c1.5-7.9 5.8-15.8 6.5-18.1 1.7-5.1 27.4-8.1 46.2.2v.3c.1-.1.2-.1.3-.1.1 0 .2.1.3.1l.3-.4c18.9-8.1 44.2-5.1 45.9 0 .8 2.4 4.2 10.4 5.5 18.5 1.5 9.7.9 19.5.9 19.5l2.3-2.7c-.6 5.6-1.5 11.2-2.6 16.6-2.8 6.3-7.2 15.2-10.6 18.3.1-.1-4.8 19.5-10.2 24.1zm-3-27.6s2.2.9 3.2 4.5c.6 2.4-.1 4.7-3 4.7-5.8 0-12.9-5.2-12.9-5.2s-7.4-5.1-13.7-4.2c-1.6.2-2.5 1-3 1.9-.5-.9-1.5-1.7-3-1.9-6.2-.9-13.7 4.2-13.7 4.2s-7 5.2-12.9 5.2c-2.9 0-3.6-2.4-3-4.7 1-3.7 3.2-4.5 3.2-4.5s-6.3.3-7 6.6c-1.1 8.9 6.4 10.5 6.4 10.5s7.7 2 16.9-1c4.1-1.3 7.7-2.7 10.3-4.9v.1c.6-.5 1.6-.8 2.7-.8s2.1.3 2.7.8c2.6 2.2 6.2 3.6 10.3 4.9 9.1 3 16.9 1 16.9 1s7.5-1.6 6.4-10.5c-.5-6.4-6.8-6.7-6.8-6.7zM114.5 115h-3.7l2.7 2.7 22.1-3.8 11.8 2.7-11.3-8.9-21.6 7.3z"/></svg>