<svg xmlns="http://www.w3.org/2000/svg" width="542.5" height="542.5" xml:space="preserve" overflow="visible"><style>.st0{fill:#fff}</style><path class="st0" d="M227.5 227.5H245V245h-17.5v-17.5zm-35 0H210V245h-17.5v-17.5zm35 35H245V280h-17.5v-17.5zm-35 0H210V280h-17.5v-17.5zm35 35H245V315h-17.5v-17.5zm-35 0H210V315h-17.5v-17.5zm131.3-70c-14.5 0-26.2 11.8-26.2 26.2s11.8 26.2 26.2 26.2 26.2-11.8 26.2-26.2-11.8-26.2-26.2-26.2zm0 35c-4.8 0-8.8-3.9-8.8-8.8s3.9-8.8 8.8-8.8 8.8 3.9 8.8 8.8-4 8.8-8.8 8.8z"/><path class="st0" d="m379.1 419.7-57-7.6-4.8-19.4c37.3-16.6 64.1-52.6 67.4-95.2h9.2c24.1 0 43.8-19.6 43.8-43.8S417.9 210 393.8 210H385v-7.4c30.9-13.5 52.5-44.3 52.5-80.1 0-38.6-31.4-70-70-70-2.4 0-4.8.2-7.1.5-13.6-32-45-53-80.4-53h-26.3c-33.8 0-61.2 27.5-61.2 61.2 0 1.1.1 2.2.2 3.3-51.1 12-87.7 57.5-87.7 110.6 0 6.2.5 12.5 1.5 18.7l5.9 35.6c-4.9 7.2-7.5 15.7-7.5 24.4 0 24.1 19.6 43.8 43.8 43.8h9.2c3.3 42.6 30 78.7 67.4 95.2l-4.8 19.4-57 7.6c-43.3 5.8-75.9 43.1-75.9 86.7v36.1H455v-36c0-43.8-32.6-81.1-75.9-86.9zm-52.8 10.6-14.9 29.8-23.1-13.9 28.6-17.2 9.4 1.3zM268.8 490h4.9l11.7 35h-28.2l11.6-35zm6.5-17.5h-8.1l-6.5-9.7 10.5-6.3 10.5 6.3-6.4 9.7zm118.5-245c14.5 0 26.2 11.8 26.2 26.2S408.2 280 393.8 280H385v-52.5h8.8zm-26.3 61.3c0 50.1-38.5 91.4-87.5 95.8v-17.8c29.6-4.3 52.5-29.8 52.5-60.6v-8.8H280V175h.2c16.1 21.5 41.6 35 69.8 35 6 0 11.8-.6 17.5-1.8v80.6zM280 315h34.1c-3.5 17.1-17 30.5-34.1 34v-34zM196.1 81.7c8.4 23.8 31.1 40.8 57.7 40.8V105c-24.1 0-43.8-19.6-43.8-43.8s19.6-43.8 43.8-43.8H280c27.7 0 52.2 16.2 63.5 40.9C326.6 67.1 315 84.7 315 105c0 19.3 15.7 35 35 35s35-15.7 35-35h-17.5c0 9.7-7.8 17.5-17.5 17.5s-17.5-7.8-17.5-17.5c0-19.3 15.7-35 35-35 29 0 52.5 23.5 52.5 52.5 0 38.6-31.4 70-70 70-32 0-59.9-21.7-67.6-52.8l-2.7-10.6-17 4.2 2.7 10.6c1.2 4.6 2.7 9.2 4.6 13.6h-51.3c-30.8 0-56.3 22.9-60.6 52.5h-9.4c-7.6 0-14.6 2.1-20.8 5.5l-4.1-24.6c-.9-5.2-1.3-10.5-1.3-15.8 0-44.7 30.6-83.1 73.6-93.4zm-73.6 172.1c0-14.5 11.8-26.2 26.2-26.2h8.8V280h-8.8c-14.4 0-26.2-11.8-26.2-26.2zm52.5 35v-70c0-24.1 19.6-43.8 43.8-43.8h43.8v209.6c-49.1-4.5-87.6-45.7-87.6-95.8zm96.3 113.7c10.2 0 20-1.5 29.4-4l4.3 17.3-33.8 20.2-33.7-20.2 4.3-17.3c9.5 2.5 19.3 4 29.5 4zm-45.7 26.6 28.6 17.2-23.1 13.9-14.9-29.8 9.4-1.3zM105 506.5c0-34.9 26.1-64.8 60.7-69.4l32.1-4.3 26 52.1 21.8-13.1 7.2 10.7-14.1 42.5H175v-35h-17.5v35H105v-18.5zM437.5 525H385v-35h-17.5v35h-63.7l-14.1-42.5 7.2-10.7 21.8 13.1 26-52.1 32.1 4.3c34.6 4.6 60.7 34.5 60.7 69.4V525zM0 105h17.5V52.5H70V35H0v70zm472.5-70v17.5H525V105h17.5V35h-70zm-455 297.5H0v70h70V385H17.5v-52.5zM525 385h-52.5v17.5h70v-70H525V385z"/></svg>